<?xml version="1.0" encoding="UTF-8" standalone="no"?>
<svg
   xmlns:dc="http://purl.org/dc/elements/1.1/"
   xmlns:cc="http://creativecommons.org/ns#"
   xmlns:rdf="http://www.w3.org/1999/02/22-rdf-syntax-ns#"
   xmlns:svg="http://www.w3.org/2000/svg"
   xmlns="http://www.w3.org/2000/svg"
   viewBox="0 0 1105.7747 931.25336"
   height="931.25336"
   width="1105.7747"
   xml:space="preserve"
   id="svg2"
   version="1.1">
  <metadata id="metadata8">
    <rdf:RDF>
      <cc:Work rdf:about="">
        <dc:format>image/svg+xml</dc:format>
        <dc:type rdf:resource="http://purl.org/dc/dcmitype/StillImage" />
      </cc:Work>
    </rdf:RDF>
  </metadata>
  <defs id="defs6" />

  <!-- Theme-aware coloring -->
  <style>
    /* Default (light mode): black */
    path { fill: #000 !important; }

    /* Dark mode: white */
    @media (prefers-color-scheme: dark) {
      path { fill: #fff !important; }
    }
  </style>

  <g transform="matrix(1.3333333,0,0,-1.3333333,0,931.25333)" id="g10">
    <g transform="translate(134.647,100.1892)" id="g12">
      <path
         id="path14"
         style="fill:#231f20;fill-opacity:1;fill-rule:nonzero;stroke:none"
         d="m 0,0 h 86.517 l 233.599,400.866 -43.259,69.214 z m 121.125,-57.679 h -222.063 l 374.911,646 112.473,-187.455 z" />
    </g>
    <g transform="translate(584.093,398.0553)" id="g16">
      <path
         id="path18"
         style="fill:#231f20;fill-opacity:1;fill-rule:nonzero;stroke:none"
         d="M 0,0 -87,-149.357 -23,-195 45,-76 79,-132 -52,-357 h -66.089 L -54,-244 -116,-200.674 -207,-357 h -68 L -35,56 Z" />
    </g>
    <g transform="translate(798.093,42.0553)" id="g20">
      <path
         id="path22"
         style="fill:#231f20;fill-opacity:1;fill-rule:nonzero;stroke:none"
         d="M 0,0 H -213.848 L -181,58 h 78 l -39,66 33,58 z" />
    </g>
  </g>
</svg>
