<?xml version="1.0" encoding="UTF-8" standalone="no"?>
<!-- Created with Inkscape (http://www.inkscape.org/) -->

<svg
   version="1.1"
   id="svg1"
   width="1137.7747"
   height="1155.9053"
   viewBox="0 0 1137.7747 1155.9053"
   sodipodi:docname="dh_logo_komplett_weiß.ai"
   xmlns:inkscape="http://www.inkscape.org/namespaces/inkscape"
   xmlns:sodipodi="http://sodipodi.sourceforge.net/DTD/sodipodi-0.dtd"
   xmlns="http://www.w3.org/2000/svg"
   xmlns:svg="http://www.w3.org/2000/svg">
  <defs
     id="defs1">
    <clipPath
       clipPathUnits="userSpaceOnUse"
       id="clipPath5">
      <path
         d="M 0,866.929 H 853.331 V 0 H 0 Z"
         transform="translate(-752.43489,-151.10461)"
         id="path5" />
    </clipPath>
  </defs>
  <sodipodi:namedview
     id="namedview1"
     pagecolor="#ffffff"
     bordercolor="#000000"
     borderopacity="0.25"
     inkscape:showpageshadow="2"
     inkscape:pageopacity="0.0"
     inkscape:pagecheckerboard="0"
     inkscape:deskcolor="#d1d1d1">
    <inkscape:page
       x="0"
       y="0"
       inkscape:label="1"
       id="page1"
       width="1137.7747"
       height="1155.9053"
       margin="49.9048 54.538666 34.571999 64"
       bleed="0" />
  </sodipodi:namedview>
  <g
     id="layer-MC0"
     inkscape:groupmode="layer"
     inkscape:label="Ebene 1">
    <path
       id="path1"
       d="m 0,0 h 86.517 l 233.599,400.866 -43.259,69.214 z m 121.125,-57.679 h -222.063 l 374.911,646 112.473,-187.455 z"
       style="fill:#ffffff;fill-opacity:1;fill-rule:nonzero;stroke:none"
       transform="matrix(1.3333333,0,0,-1.3333333,198.64133,819.00053)" />
    <path
       id="path2"
       d="M 0,0 -87,-149.357 -23,-195 45,-76 79,-132 -52,-357 h -66.089 L -54,-244 -116,-200.674 -207,-357 h -68 L -35,56 Z"
       style="fill:#ffffff;fill-opacity:1;fill-rule:nonzero;stroke:none"
       transform="matrix(1.3333333,0,0,-1.3333333,797.90267,421.84587)" />
    <path
       id="path3"
       d="M 0,0 H -213.848 L -181,58 h 78 l -39,66 33,58 z"
       style="fill:#ffffff;fill-opacity:1;fill-rule:nonzero;stroke:none"
       transform="matrix(1.3333333,0,0,-1.3333333,1083.236,896.51253)" />
    <path
       id="path4"
       d="m 0,0 v -113.494 h 16.135 v 69.213 l 27.297,-69.213 h 16.56 V 0 H 43.857 V -67.575 L 17.227,0 Z m -10.919,-113.433 v 16.135 h -27.842 v 39.853 h 16.863 v 16.136 h -16.863 v 25.113 h 27.842 v 16.135 h -43.978 v -113.372 z m -74.428,67.089 c -7.442,4.853 -11.222,10.373 -11.344,16.56 v 6.369 c -0.121,4.65 2.184,6.976 6.915,6.976 h 0.607 c 4.489,0 6.794,-2.062 6.915,-6.187 v -8.735 h 16.378 v 14.012 c 0,11.444 -5.743,17.207 -17.227,17.288 h -12.799 c -11.486,-0.081 -17.227,-5.844 -17.227,-17.288 v -16.256 c 0.364,-11.647 6.833,-21.353 19.411,-29.117 7.521,-5.541 11.343,-11.202 11.464,-16.984 v -10.252 c 0.121,-4.651 -2.184,-6.976 -6.915,-6.976 h -0.607 c -4.488,0 -6.793,2.063 -6.915,6.188 v 10.615 h -16.378 v -16.985 c 0.364,-10.757 6.106,-16.176 17.227,-16.256 h 12.8 c 11.484,0.08 17.227,5.843 17.227,17.288 v 20.381 c -0.122,11.727 -6.633,21.513 -19.532,29.359 M -184.04,0 v -113.494 h 16.135 v 69.213 l 27.297,-69.213 h 16.56 V 0 h -16.135 V -67.575 L -166.813,0 Z m -28.51,-94.386 3.761,-18.986 h 16.803 L -214.43,-0.061 h -16.803 l -22.444,-113.311 h 16.803 l 3.761,18.986 z m -17.288,16.317 7.037,35.607 7.036,-35.607 z m -32.938,-35.364 V -0.061 h -16.135 v -51.621 h -17.712 v 51.621 h -16.136 v -113.372 h 16.136 v 46.162 h 17.712 v -46.162 z M -414.605,0 l 23.96,-58.718 v -54.715 h 16.135 v 54.836 L -350.246,0 h -19.29 L -382.517,-35.001 -395.377,0 Z m -22.93,-113.433 v 97.176 h 16.924 V -0.122 H -471.2 v -16.135 h 17.53 v -97.176 z m -60.052,-0.243 h 17.288 L -495.1,-76.31 c 8.128,1.537 12.192,7.137 12.192,16.803 v 42.158 c 0,11.444 -5.742,17.207 -17.227,17.288 h -30.633 v -113.372 h 16.318 v 36.638 h 2.547 z m -1.699,62.601 c 0.122,-6.269 -2.183,-9.402 -6.915,-9.402 h -8.128 V -16.5 h 8.128 c 4.732,0 7.037,-2.326 6.915,-6.975 z m -42.4,-62.358 v 16.135 h -27.843 v 39.853 h 16.863 v 16.136 h -16.863 v 25.113 h 27.843 v 16.135 h -43.978 v -113.372 z m -103.97,17.349 c 0,-11.445 5.741,-17.208 17.227,-17.288 h 14.619 c 11.484,0.08 17.227,5.843 17.227,17.288 v 78.735 c 0,11.444 -5.743,17.207 -17.227,17.288 h -14.619 c -11.486,-0.081 -17.227,-5.844 -17.227,-17.288 z m 32.695,6.066 c 0.121,-4.651 -2.184,-6.976 -6.915,-6.976 h -2.426 c -4.732,0 -7.037,2.325 -6.916,6.976 v 66.543 c -0.121,4.649 2.184,6.975 6.916,6.975 h 2.426 c 4.731,0 7.036,-2.326 6.915,-6.975 z m -91.474,-23.354 h 30.633 c 11.484,0.08 17.227,5.843 17.227,17.288 v 78.735 c 0,11.444 -5.743,17.207 -17.227,17.288 h -30.633 z m 31.482,23.354 c 0.121,-4.651 -2.184,-6.976 -6.915,-6.976 h -8.128 V -16.5 h 8.128 c 4.731,0 7.036,-2.326 6.915,-6.975 z"
       style="fill:#ffffff;fill-opacity:1;fill-rule:nonzero;stroke:none"
       transform="matrix(1.3333333,0,0,-1.3333333,1003.2465,954.43253)"
       clip-path="url(#clipPath5)" />
  </g>
</svg>
